<mxfile host="app.diagrams.net" modified="2021-09-10T11:04:21.382Z" agent="5.0 (Windows)" etag="xgWOtZ66owi2Em3VRYYO" version="15.1.2" type="github">
  <diagram id="y6UDZ2PKM4V4AvefkH3H" name="Page-1">
    <mxGraphModel dx="1447" dy="780" grid="1" gridSize="10" guides="1" tooltips="1" connect="1" arrows="1" fold="1" page="1" pageScale="1" pageWidth="1100" pageHeight="850" math="0" shadow="0">
      <root>
        <mxCell id="0" />
        <mxCell id="1" parent="0" />
        <mxCell id="c62gsvJIpqt3485NFeUb-2" value="" style="shape=offPageConnector;whiteSpace=wrap;html=1;rotation=-90;size=0.15870946031211888;" parent="1" vertex="1">
          <mxGeometry x="419" y="140" width="40" height="237.73" as="geometry" />
        </mxCell>
        <mxCell id="c62gsvJIpqt3485NFeUb-5" value="" style="shape=offPageConnector;whiteSpace=wrap;html=1;rotation=-90;size=0.15870946031211888;" parent="1" vertex="1">
          <mxGeometry x="419" y="100" width="40" height="237.73" as="geometry" />
        </mxCell>
        <mxCell id="c62gsvJIpqt3485NFeUb-6" value="" style="shape=offPageConnector;whiteSpace=wrap;html=1;rotation=-90;size=0.15870946031211888;" parent="1" vertex="1">
          <mxGeometry x="419" y="180" width="40" height="237.73" as="geometry" />
        </mxCell>
        <mxCell id="c62gsvJIpqt3485NFeUb-7" value="" style="shape=offPageConnector;whiteSpace=wrap;html=1;rotation=-90;size=0.15870946031211888;" parent="1" vertex="1">
          <mxGeometry x="419" y="220" width="40" height="237.73" as="geometry" />
        </mxCell>
        <mxCell id="c62gsvJIpqt3485NFeUb-8" value="" style="shape=offPageConnector;whiteSpace=wrap;html=1;rotation=-90;size=0.15870946031211888;" parent="1" vertex="1">
          <mxGeometry x="419" y="260" width="40" height="237.73" as="geometry" />
        </mxCell>
        <mxCell id="c62gsvJIpqt3485NFeUb-9" value="" style="shape=offPageConnector;whiteSpace=wrap;html=1;rotation=-90;size=0.15870946031211888;" parent="1" vertex="1">
          <mxGeometry x="419" y="300" width="40" height="237.73" as="geometry" />
        </mxCell>
        <mxCell id="c62gsvJIpqt3485NFeUb-10" value="" style="rhombus;whiteSpace=wrap;html=1;" parent="1" vertex="1">
          <mxGeometry x="518" y="219" width="80" height="40" as="geometry" />
        </mxCell>
        <mxCell id="c62gsvJIpqt3485NFeUb-11" value="" style="rhombus;whiteSpace=wrap;html=1;" parent="1" vertex="1">
          <mxGeometry x="518" y="259" width="80" height="40" as="geometry" />
        </mxCell>
        <mxCell id="c62gsvJIpqt3485NFeUb-12" value="" style="rhombus;whiteSpace=wrap;html=1;" parent="1" vertex="1">
          <mxGeometry x="518" y="298.73" width="80" height="40" as="geometry" />
        </mxCell>
        <mxCell id="c62gsvJIpqt3485NFeUb-13" value="" style="rhombus;whiteSpace=wrap;html=1;" parent="1" vertex="1">
          <mxGeometry x="518" y="338.73" width="80" height="40" as="geometry" />
        </mxCell>
        <mxCell id="c62gsvJIpqt3485NFeUb-14" value="" style="rhombus;whiteSpace=wrap;html=1;" parent="1" vertex="1">
          <mxGeometry x="518" y="378.73" width="80" height="40" as="geometry" />
        </mxCell>
        <mxCell id="c62gsvJIpqt3485NFeUb-15" value="" style="rhombus;whiteSpace=wrap;html=1;" parent="1" vertex="1">
          <mxGeometry x="598" y="338.73" width="80" height="40" as="geometry" />
        </mxCell>
        <mxCell id="c62gsvJIpqt3485NFeUb-16" value="" style="rhombus;whiteSpace=wrap;html=1;" parent="1" vertex="1">
          <mxGeometry x="598" y="298.73" width="80" height="40" as="geometry" />
        </mxCell>
        <mxCell id="c62gsvJIpqt3485NFeUb-17" value="" style="rhombus;whiteSpace=wrap;html=1;" parent="1" vertex="1">
          <mxGeometry x="598" y="259" width="80" height="40" as="geometry" />
        </mxCell>
        <mxCell id="c62gsvJIpqt3485NFeUb-18" value="" style="rhombus;whiteSpace=wrap;html=1;" parent="1" vertex="1">
          <mxGeometry x="558" y="358.86" width="80" height="40" as="geometry" />
        </mxCell>
        <mxCell id="c62gsvJIpqt3485NFeUb-19" value="" style="rhombus;whiteSpace=wrap;html=1;" parent="1" vertex="1">
          <mxGeometry x="558" y="318.86" width="80" height="40" as="geometry" />
        </mxCell>
        <mxCell id="c62gsvJIpqt3485NFeUb-20" value="" style="rhombus;whiteSpace=wrap;html=1;" parent="1" vertex="1">
          <mxGeometry x="558" y="278.86" width="80" height="40" as="geometry" />
        </mxCell>
        <mxCell id="c62gsvJIpqt3485NFeUb-21" value="" style="rhombus;whiteSpace=wrap;html=1;" parent="1" vertex="1">
          <mxGeometry x="558" y="238.86" width="80" height="40" as="geometry" />
        </mxCell>
        <mxCell id="c62gsvJIpqt3485NFeUb-22" value="" style="rhombus;whiteSpace=wrap;html=1;" parent="1" vertex="1">
          <mxGeometry x="678" y="299" width="80" height="40" as="geometry" />
        </mxCell>
        <mxCell id="c62gsvJIpqt3485NFeUb-23" value="" style="rhombus;whiteSpace=wrap;html=1;" parent="1" vertex="1">
          <mxGeometry x="638" y="318.87" width="80" height="40" as="geometry" />
        </mxCell>
        <mxCell id="c62gsvJIpqt3485NFeUb-24" value="" style="rhombus;whiteSpace=wrap;html=1;" parent="1" vertex="1">
          <mxGeometry x="638" y="278.87" width="80" height="40" as="geometry" />
        </mxCell>
        <mxCell id="U8l5f3V5J46_ff3yLcRB-1" value="" style="shape=offPageConnector;whiteSpace=wrap;html=1;rotation=-90;size=0.15870946031211888;" vertex="1" parent="1">
          <mxGeometry x="419" y="340" width="40" height="237.73" as="geometry" />
        </mxCell>
        <mxCell id="U8l5f3V5J46_ff3yLcRB-2" value="" style="shape=offPageConnector;whiteSpace=wrap;html=1;rotation=-90;size=0.15870946031211888;" vertex="1" parent="1">
          <mxGeometry x="419" y="419.73" width="40" height="237.73" as="geometry" />
        </mxCell>
        <mxCell id="U8l5f3V5J46_ff3yLcRB-3" value="" style="shape=offPageConnector;whiteSpace=wrap;html=1;rotation=-90;size=0.15870946031211888;" vertex="1" parent="1">
          <mxGeometry x="419" y="379.73" width="40" height="237.73" as="geometry" />
        </mxCell>
      </root>
    </mxGraphModel>
  </diagram>
</mxfile>
